<?xml version="1.0" encoding="UTF-8"?>
<svg version="1.1" xmlns="http://www.w3.org/2000/svg" width="256" height="256">
<path d="M0 0 C13.2 0 26.4 0 40 0 C40 2.64 40 5.28 40 8 C42.64 8 45.28 8 48 8 C48 10.64 48 13.28 48 16 C53.28 16 58.56 16 64 16 C64 18.64 64 21.28 64 24 C77.2 24 90.4 24 104 24 C104 26.64 104 29.28 104 32 C111.92 32 119.84 32 128 32 C128 37.28 128 42.56 128 48 C157.04 48 186.08 48 216 48 C216 50.64 216 53.28 216 56 C218.64 56 221.28 56 224 56 C224 58.64 224 61.28 224 64 C229.28 64 234.56 64 240 64 C240 66.64 240 69.28 240 72 C242.64 72 245.28 72 248 72 C248 90.48 248 108.96 248 128 C245.36 128 242.72 128 240 128 C240 143.84 240 159.68 240 176 C237.36 176 234.72 176 232 176 C232 183.92 232 191.84 232 200 C229.36 200 226.72 200 224 200 C224 205.28 224 210.56 224 216 C205.52 216 187.04 216 168 216 C168 208.08 168 200.16 168 192 C170.64 192 173.28 192 176 192 C176 189.36 176 186.72 176 184 C160.16 184 144.32 184 128 184 C128 186.64 128 189.28 128 192 C125.36 192 122.72 192 120 192 C120 197.28 120 202.56 120 208 C117.36 208 114.72 208 112 208 C112 210.64 112 213.28 112 216 C96.16 216 80.32 216 64 216 C64 205.44 64 194.88 64 184 C66.64 184 69.28 184 72 184 C72 176.08 72 168.16 72 160 C61.44 160 50.88 160 40 160 C40 157.36 40 154.72 40 152 C34.72 152 29.44 152 24 152 C24 149.36 24 146.72 24 144 C21.36 144 18.72 144 16 144 C16 146.64 16 149.28 16 152 C8.08 152 0.16 152 -8 152 C-8 136.16 -8 120.32 -8 104 C5.2 104 18.4 104 32 104 C32 96.08 32 88.16 32 80 C26.72 80 21.44 80 16 80 C16 77.36 16 74.72 16 72 C13.36 72 10.72 72 8 72 C8 74.64 8 77.28 8 80 C5.36 80 2.72 80 0 80 C0 77.36 0 74.72 0 72 C-2.64 72 -5.28 72 -8 72 C-8 53.52 -8 35.04 -8 16 C-5.36 16 -2.72 16 0 16 C0 10.72 0 5.44 0 0 Z M16 16 C16 18.64 16 21.28 16 24 C18.64 24 21.28 24 24 24 C24 21.36 24 18.72 24 16 C21.36 16 18.72 16 16 16 Z " fill="#181B1D" transform="translate(8,24)"/>
<path d="M0 0 C39.6 0 79.2 0 120 0 C120 5.28 120 10.56 120 16 C117.36 16 114.72 16 112 16 C112 31.84 112 47.68 112 64 C109.36 64 106.72 64 104 64 C104 71.92 104 79.84 104 88 C101.36 88 98.72 88 96 88 C96 93.28 96 98.56 96 104 C82.8 104 69.6 104 56 104 C56 101.36 56 98.72 56 96 C58.64 96 61.28 96 64 96 C64 90.72 64 85.44 64 80 C66.64 80 69.28 80 72 80 C72 77.36 72 74.72 72 72 C48.24 72 24.48 72 0 72 C0 74.64 0 77.28 0 80 C-2.64 80 -5.28 80 -8 80 C-8 85.28 -8 90.56 -8 96 C-10.64 96 -13.28 96 -16 96 C-16 98.64 -16 101.28 -16 104 C-26.56 104 -37.12 104 -48 104 C-48 98.72 -48 93.44 -48 88 C-45.36 88 -42.72 88 -40 88 C-40 85.36 -40 82.72 -40 80 C-37.36 80 -34.72 80 -32 80 C-32 74.72 -32 69.44 -32 64 C-34.64 64 -37.28 64 -40 64 C-40 61.36 -40 58.72 -40 56 C-42.64 56 -45.28 56 -48 56 C-48 53.36 -48 50.72 -48 48 C-40.08 48 -32.16 48 -24 48 C-24 45.36 -24 42.72 -24 40 C-21.36 40 -18.72 40 -16 40 C-16 34.72 -16 29.44 -16 24 C-13.36 24 -10.72 24 -8 24 C-8 21.36 -8 18.72 -8 16 C-5.36 16 -2.72 16 0 16 C0 10.72 0 5.44 0 0 Z " fill="#FF9C19" transform="translate(128,128)"/>
<path d="M0 0 C29.04 0 58.08 0 88 0 C88 2.64 88 5.28 88 8 C90.64 8 93.28 8 96 8 C96 10.64 96 13.28 96 16 C101.28 16 106.56 16 112 16 C112 21.28 112 26.56 112 32 C114.64 32 117.28 32 120 32 C120 29.36 120 26.72 120 24 C122.64 24 125.28 24 128 24 C128 39.84 128 55.68 128 72 C125.36 72 122.72 72 120 72 C120 87.84 120 103.68 120 120 C117.36 120 114.72 120 112 120 C112 127.92 112 135.84 112 144 C109.36 144 106.72 144 104 144 C104 149.28 104 154.56 104 160 C85.52 160 67.04 160 48 160 C48 152.08 48 144.16 48 136 C50.64 136 53.28 136 56 136 C56 133.36 56 130.72 56 128 C40.16 128 24.32 128 8 128 C8 130.64 8 133.28 8 136 C5.36 136 2.72 136 0 136 C0 141.28 0 146.56 0 152 C-2.64 152 -5.28 152 -8 152 C-8 154.64 -8 157.28 -8 160 C-23.84 160 -39.68 160 -56 160 C-56 149.44 -56 138.88 -56 128 C-53.36 128 -50.72 128 -48 128 C-48 120.08 -48 112.16 -48 104 C-45.36 104 -42.72 104 -40 104 C-40 106.64 -40 109.28 -40 112 C-37.36 112 -34.72 112 -32 112 C-32 117.28 -32 122.56 -32 128 C-34.64 128 -37.28 128 -40 128 C-40 130.64 -40 133.28 -40 136 C-42.64 136 -45.28 136 -48 136 C-48 141.28 -48 146.56 -48 152 C-37.44 152 -26.88 152 -16 152 C-16 149.36 -16 146.72 -16 144 C-13.36 144 -10.72 144 -8 144 C-8 138.72 -8 133.44 -8 128 C-5.36 128 -2.72 128 0 128 C0 125.36 0 122.72 0 120 C23.76 120 47.52 120 72 120 C72 122.64 72 125.28 72 128 C69.36 128 66.72 128 64 128 C64 133.28 64 138.56 64 144 C61.36 144 58.72 144 56 144 C56 146.64 56 149.28 56 152 C69.2 152 82.4 152 96 152 C96 146.72 96 141.44 96 136 C98.64 136 101.28 136 104 136 C104 128.08 104 120.16 104 112 C106.64 112 109.28 112 112 112 C112 96.16 112 80.32 112 64 C114.64 64 117.28 64 120 64 C120 58.72 120 53.44 120 48 C80.4 48 40.8 48 0 48 C0 42.72 0 37.44 0 32 C2.64 32 5.28 32 8 32 C8 24.08 8 16.16 8 8 C5.36 8 2.72 8 0 8 C0 5.36 0 2.72 0 0 Z " fill="#8434BA" transform="translate(128,80)"/>
<path d="M0 0 C7.92 0 15.84 0 24 0 C24 2.64 24 5.28 24 8 C26.64 8 29.28 8 32 8 C32 10.64 32 13.28 32 16 C37.28 16 42.56 16 48 16 C48 18.64 48 21.28 48 24 C61.2 24 74.4 24 88 24 C88 29.28 88 34.56 88 40 C93.28 40 98.56 40 104 40 C104 37.36 104 34.72 104 32 C106.64 32 109.28 32 112 32 C112 39.92 112 47.84 112 56 C114.64 56 117.28 56 120 56 C120 63.92 120 71.84 120 80 C117.36 80 114.72 80 112 80 C112 85.28 112 90.56 112 96 C88.24 96 64.48 96 40 96 C40 90.72 40 85.44 40 80 C37.36 80 34.72 80 32 80 C32 74.72 32 69.44 32 64 C26.72 64 21.44 64 16 64 C16 61.36 16 58.72 16 56 C13.36 56 10.72 56 8 56 C8 53.36 8 50.72 8 48 C5.36 48 2.72 48 0 48 C0 50.64 0 53.28 0 56 C-2.64 56 -5.28 56 -8 56 C-8 42.8 -8 29.6 -8 16 C-5.36 16 -2.72 16 0 16 C0 10.72 0 5.44 0 0 Z M8 8 C8 10.64 8 13.28 8 16 C10.64 16 13.28 16 16 16 C16 13.36 16 10.72 16 8 C13.36 8 10.72 8 8 8 Z " fill="#FF9C19" transform="translate(16,32)"/>
<path d="M0 0 C26.4 0 52.8 0 80 0 C80 5.28 80 10.56 80 16 C77.36 16 74.72 16 72 16 C72 18.64 72 21.28 72 24 C69.36 24 66.72 24 64 24 C64 29.28 64 34.56 64 40 C61.36 40 58.72 40 56 40 C56 42.64 56 45.28 56 48 C40.16 48 24.32 48 8 48 C8 45.36 8 42.72 8 40 C2.72 40 -2.56 40 -8 40 C-8 37.36 -8 34.72 -8 32 C-15.92 32 -23.84 32 -32 32 C-32 34.64 -32 37.28 -32 40 C-34.64 40 -37.28 40 -40 40 C-40 29.44 -40 18.88 -40 8 C-37.36 8 -34.72 8 -32 8 C-32 10.64 -32 13.28 -32 16 C-26.72 16 -21.44 16 -16 16 C-16 13.36 -16 10.72 -16 8 C-13.36 8 -10.72 8 -8 8 C-8 10.64 -8 13.28 -8 16 C-5.36 16 -2.72 16 0 16 C0 10.72 0 5.44 0 0 Z " fill="#8434BA" transform="translate(48,128)"/>
<path d="M0 0 C2.64 0 5.28 0 8 0 C8 10.56 8 21.12 8 32 C5.36 32 2.72 32 0 32 C0 47.84 0 63.68 0 80 C-2.64 80 -5.28 80 -8 80 C-8 87.92 -8 95.84 -8 104 C-10.64 104 -13.28 104 -16 104 C-16 109.28 -16 114.56 -16 120 C-34.48 120 -52.96 120 -72 120 C-72 112.08 -72 104.16 -72 96 C-69.36 96 -66.72 96 -64 96 C-64 93.36 -64 90.72 -64 88 C-79.84 88 -95.68 88 -112 88 C-112 90.64 -112 93.28 -112 96 C-114.64 96 -117.28 96 -120 96 C-120 101.28 -120 106.56 -120 112 C-122.64 112 -125.28 112 -128 112 C-128 114.64 -128 117.28 -128 120 C-143.84 120 -159.68 120 -176 120 C-176 109.44 -176 98.88 -176 88 C-173.36 88 -170.72 88 -168 88 C-168 80.08 -168 72.16 -168 64 C-165.36 64 -162.72 64 -160 64 C-160 66.64 -160 69.28 -160 72 C-157.36 72 -154.72 72 -152 72 C-152 77.28 -152 82.56 -152 88 C-154.64 88 -157.28 88 -160 88 C-160 90.64 -160 93.28 -160 96 C-162.64 96 -165.28 96 -168 96 C-168 101.28 -168 106.56 -168 112 C-157.44 112 -146.88 112 -136 112 C-136 109.36 -136 106.72 -136 104 C-133.36 104 -130.72 104 -128 104 C-128 98.72 -128 93.44 -128 88 C-125.36 88 -122.72 88 -120 88 C-120 85.36 -120 82.72 -120 80 C-96.24 80 -72.48 80 -48 80 C-48 82.64 -48 85.28 -48 88 C-50.64 88 -53.28 88 -56 88 C-56 93.28 -56 98.56 -56 104 C-58.64 104 -61.28 104 -64 104 C-64 106.64 -64 109.28 -64 112 C-50.8 112 -37.6 112 -24 112 C-24 106.72 -24 101.44 -24 96 C-21.36 96 -18.72 96 -16 96 C-16 88.08 -16 80.16 -16 72 C-13.36 72 -10.72 72 -8 72 C-8 56.16 -8 40.32 -8 24 C-5.36 24 -2.72 24 0 24 C0 16.08 0 8.16 0 0 Z " fill="#181B1D" transform="translate(248,120)"/>
<path d="M0 0 C5.28 0 10.56 0 16 0 C16 5.28 16 10.56 16 16 C10.72 16 5.44 16 0 16 C0 10.72 0 5.44 0 0 Z " fill="#FFFFFF" transform="translate(80,64)"/>
<path d="M0 0 C2.64 0 5.28 0 8 0 C8 2.64 8 5.28 8 8 C5.36 8 2.72 8 0 8 C0 5.36 0 2.72 0 0 Z " fill="#F0F0F0" transform="translate(8,96)"/>
</svg>
